<svg width="1362" height="1079" viewBox="0 0 1362 1079" fill="none" xmlns="http://www.w3.org/2000/svg">
<path d="M-487.867 156.183L252.47 582.149" stroke="url(#paint0_linear_135_8150)" stroke-miterlimit="10"/>
<path d="M-474.418 134.065L279.592 567.896" stroke="url(#paint1_linear_135_8150)" stroke-miterlimit="10"/>
<path d="M-460.962 111.948L306.714 553.649" stroke="url(#paint2_linear_135_8150)" stroke-miterlimit="10"/>
<path d="M-447.513 89.8301L333.842 539.396" stroke="url(#paint3_linear_135_8150)" stroke-miterlimit="10"/>
<path d="M-434.064 67.7124L360.964 525.143" stroke="url(#paint4_linear_135_8150)" stroke-miterlimit="10"/>
<path d="M-420.608 45.5884L388.092 510.897" stroke="url(#paint5_linear_135_8150)" stroke-miterlimit="10"/>
<path d="M-407.159 23.4707L415.214 496.644" stroke="url(#paint6_linear_135_8150)" stroke-miterlimit="10"/>
<path d="M-393.703 1.35327L442.336 482.391" stroke="url(#paint7_linear_135_8150)" stroke-miterlimit="10"/>
<path d="M303.208 430.177C304.383 430.177 305.334 431.129 305.334 432.301C305.334 433.473 304.382 434.424 303.208 434.424C302.032 434.424 301.081 433.473 301.081 432.301C301.081 431.128 302.032 430.177 303.208 430.177Z" fill="#47FFF9" stroke="url(#paint8_linear_135_8150)"/>
<path d="M3.1084 227.548C4.28349 227.548 5.23535 228.5 5.23535 229.672C5.23516 230.844 4.28337 231.795 3.1084 231.795C1.93335 231.795 0.981635 230.844 0.981445 229.672C0.981445 228.5 1.93324 227.548 3.1084 227.548Z" fill="#47FFF9" stroke="url(#paint9_linear_135_8150)"/>
<path d="M357.64 431.824C358.815 431.824 359.767 432.776 359.767 433.948C359.766 435.12 358.815 436.071 357.64 436.071C356.465 436.071 355.513 435.12 355.513 433.948C355.513 432.776 356.464 431.824 357.64 431.824Z" fill="#47FFF9" stroke="url(#paint10_linear_135_8150)"/>
<path d="M174.548 535.61C175.723 535.61 176.675 536.562 176.675 537.734C176.675 538.906 175.723 539.857 174.548 539.857C173.373 539.857 172.422 538.907 172.421 537.734C172.421 536.562 173.373 535.61 174.548 535.61Z" fill="#47FFF9" stroke="url(#paint11_linear_135_8150)"/>
<path d="M211.066 496.488C212.241 496.488 213.193 497.44 213.193 498.612C213.193 499.784 212.241 500.735 211.066 500.735C209.891 500.735 208.939 499.784 208.939 498.612C208.939 497.44 209.891 496.488 211.066 496.488Z" fill="#47FFF9" stroke="url(#paint12_linear_135_8150)"/>
<path d="M293.311 484.541C294.486 484.541 295.438 485.493 295.438 486.665C295.437 487.837 294.486 488.788 293.311 488.788C292.136 488.788 291.184 487.837 291.184 486.665C291.184 485.493 292.135 484.541 293.311 484.541Z" fill="#47FFF9" stroke="url(#paint13_linear_135_8150)"/>
<path d="M204.239 463.125C205.414 463.125 206.366 464.077 206.366 465.249C206.366 466.421 205.414 467.372 204.239 467.372C203.064 467.372 202.112 466.421 202.112 465.249C202.112 464.076 203.064 463.125 204.239 463.125Z" fill="#47FFF9" stroke="url(#paint14_linear_135_8150)"/>
<path d="M227.358 535.639C228.533 535.639 229.485 536.591 229.485 537.763C229.485 538.936 228.533 539.886 227.358 539.886C226.183 539.886 225.232 538.936 225.231 537.763C225.231 536.591 226.183 535.639 227.358 535.639Z" fill="#47FFF9" stroke="url(#paint15_linear_135_8150)"/>
<path d="M342.794 482.894C343.97 482.894 344.921 483.845 344.921 485.018C344.921 486.19 343.969 487.141 342.794 487.141C341.619 487.141 340.668 486.19 340.667 485.018C340.667 483.845 341.619 482.894 342.794 482.894Z" fill="#47FFF9" stroke="url(#paint16_linear_135_8150)"/>
<path d="M1361.19 156.209L620.853 582.182" stroke="url(#paint17_linear_135_8150)" stroke-miterlimit="10"/>
<path d="M1347.73 134.092L593.731 567.929" stroke="url(#paint18_linear_135_8150)" stroke-miterlimit="10"/>
<path d="M1334.29 111.974L566.603 553.676" stroke="url(#paint19_linear_135_8150)" stroke-miterlimit="10"/>
<path d="M1320.84 89.8562L539.481 539.423" stroke="url(#paint20_linear_135_8150)" stroke-miterlimit="10"/>
<path d="M1307.38 67.7388L512.36 525.176" stroke="url(#paint21_linear_135_8150)" stroke-miterlimit="10"/>
<path d="M1293.93 45.6211L485.231 510.923" stroke="url(#paint22_linear_135_8150)" stroke-miterlimit="10"/>
<path d="M1280.48 23.5037L458.11 496.67" stroke="url(#paint23_linear_135_8150)" stroke-miterlimit="10"/>
<path d="M1267.03 1.38599L430.981 482.417" stroke="url(#paint24_linear_135_8150)" stroke-miterlimit="10"/>
<path d="M645.028 536.197C646.203 536.197 647.155 537.149 647.155 538.321C647.155 539.493 646.203 540.444 645.028 540.444C643.853 540.444 642.902 539.493 642.901 538.321C642.901 537.148 643.853 536.197 645.028 536.197Z" fill="#47FFF9" stroke="url(#paint25_linear_135_8150)"/>
<path d="M692.559 538.722C693.734 538.722 694.686 539.674 694.686 540.846C694.685 542.018 693.734 542.969 692.559 542.969C691.384 542.969 690.432 542.018 690.432 540.846C690.432 539.674 691.383 538.722 692.559 538.722Z" fill="#47FFF9" stroke="url(#paint26_linear_135_8150)"/>
<path d="M763.535 497.964C764.71 497.964 765.662 498.915 765.662 500.088C765.661 501.26 764.71 502.211 763.535 502.211C762.36 502.211 761.408 501.26 761.408 500.088C761.408 498.915 762.36 497.964 763.535 497.964Z" fill="#47FFF9" stroke="url(#paint27_linear_135_8150)"/>
<path d="M722.554 461.59C723.729 461.59 724.681 462.541 724.681 463.714C724.68 464.886 723.729 465.837 722.554 465.837C721.379 465.837 720.427 464.886 720.427 463.714C720.427 462.541 721.379 461.59 722.554 461.59Z" fill="#47FFF9" stroke="url(#paint28_linear_135_8150)"/>
<path d="M639.065 479.495C640.24 479.495 641.192 480.447 641.192 481.619C641.192 482.791 640.24 483.742 639.065 483.742C637.89 483.742 636.938 482.792 636.938 481.619C636.938 480.447 637.89 479.495 639.065 479.495Z" fill="#47FFF9" stroke="url(#paint29_linear_135_8150)"/>
<path d="M555.576 497.401C556.751 497.401 557.703 498.353 557.703 499.525C557.703 500.697 556.751 501.648 555.576 501.648C554.401 501.648 553.449 500.697 553.449 499.525C553.449 498.353 554.401 497.401 555.576 497.401Z" fill="#47FFF9" stroke="url(#paint30_linear_135_8150)"/>
<path d="M588.375 419.81C589.551 419.81 590.502 420.761 590.502 421.934C590.502 423.106 589.55 424.057 588.375 424.057C587.2 424.057 586.249 423.106 586.249 421.934C586.249 420.761 587.2 419.81 588.375 419.81Z" fill="#47FFF9" stroke="url(#paint31_linear_135_8150)"/>
<path d="M498.923 440.699C500.098 440.7 501.05 441.651 501.05 442.823C501.05 443.996 500.098 444.946 498.923 444.947C497.748 444.947 496.797 443.996 496.796 442.823C496.796 441.651 497.748 440.699 498.923 440.699Z" fill="#47FFF9" stroke="url(#paint32_linear_135_8150)"/>
<path d="M772.768 283.642C773.943 283.642 774.895 284.594 774.895 285.766C774.894 286.938 773.943 287.889 772.768 287.889C771.593 287.889 770.641 286.939 770.641 285.766C770.641 284.594 771.592 283.642 772.768 283.642Z" fill="#47FFF9" stroke="url(#paint33_linear_135_8150)"/>
<path d="M436.688 768.672L238.719 653.696L238.01 574.658L436.688 689.227V768.672Z" fill="url(#paint34_linear_135_8150)"/>
<path d="M634.657 653.939L436.688 768.915V689.227L635.36 574.658L634.657 653.939Z" fill="url(#paint35_linear_135_8150)"/>
<path d="M635.359 574.658L436.688 689.228L238.01 574.658L436.688 460.909L635.359 574.658Z" fill="url(#paint36_linear_135_8150)"/>
<path d="M607.456 574.717L436.688 673.197L265.919 574.717L436.688 476.939L607.456 574.717Z" stroke="#17BAFF" stroke-miterlimit="10"/>
<path d="M455.194 696.462L1118.48 1078.1" stroke="url(#paint37_linear_135_8150)" stroke-miterlimit="10"/>
<path d="M478.737 682.767L1142.02 1064.4" stroke="url(#paint38_linear_135_8150)" stroke-miterlimit="10"/>
<path d="M502.273 669.071L1165.56 1050.71" stroke="url(#paint39_linear_135_8150)" stroke-miterlimit="10"/>
<path d="M525.809 655.382L1189.1 1037.02" stroke="url(#paint40_linear_135_8150)" stroke-miterlimit="10"/>
<path d="M549.352 641.686L1212.63 1023.32" stroke="url(#paint41_linear_135_8150)" stroke-miterlimit="10"/>
<path d="M572.888 627.991L1236.18 1009.62" stroke="url(#paint42_linear_135_8150)" stroke-miterlimit="10"/>
<path d="M596.431 614.295L1259.71 995.935" stroke="url(#paint43_linear_135_8150)" stroke-miterlimit="10"/>
<path d="M619.967 600.606L1283.25 982.239" stroke="url(#paint44_linear_135_8150)" stroke-miterlimit="10"/>
<path d="M557.338 753.109C558.513 753.109 559.465 754.061 559.465 755.233C559.465 756.405 558.513 757.356 557.338 757.356C556.163 757.356 555.211 756.405 555.211 755.233C555.211 754.061 556.163 753.109 557.338 753.109Z" fill="#17BAFF" stroke="url(#paint45_linear_135_8150)"/>
<path d="M530.236 710.376C531.411 710.376 532.363 711.327 532.363 712.5C532.363 713.672 531.411 714.623 530.236 714.623C529.061 714.623 528.109 713.672 528.109 712.5C528.109 711.327 529.061 710.376 530.236 710.376Z" fill="#17BAFF" stroke="url(#paint46_linear_135_8150)"/>
<path d="M629.259 740.01C630.434 740.01 631.386 740.962 631.386 742.134C631.386 743.306 630.434 744.257 629.259 744.257C628.084 744.257 627.133 743.306 627.132 742.134C627.132 740.962 628.084 740.01 629.259 740.01Z" fill="#17BAFF" stroke="url(#paint47_linear_135_8150)"/>
<path d="M577.025 655.482C578.2 655.482 579.152 656.434 579.152 657.606C579.152 658.778 578.2 659.729 577.025 659.729C575.85 659.729 574.899 658.778 574.898 657.606C574.898 656.434 575.85 655.482 577.025 655.482Z" fill="#17BAFF" stroke="url(#paint48_linear_135_8150)"/>
<path d="M646.537 668.246C647.712 668.246 648.664 669.198 648.664 670.37C648.664 671.542 647.712 672.493 646.537 672.493C645.362 672.493 644.41 671.542 644.41 670.37C644.41 669.198 645.362 668.246 646.537 668.246Z" fill="#17BAFF" stroke="url(#paint49_linear_135_8150)"/>
<path d="M591.357 691.38C592.533 691.38 593.484 692.331 593.484 693.504C593.484 694.676 592.532 695.627 591.357 695.627C590.182 695.627 589.231 694.676 589.23 693.504C589.23 692.331 590.182 691.38 591.357 691.38Z" fill="#17BAFF" stroke="url(#paint50_linear_135_8150)"/>
<path d="M696.558 670.01C697.733 670.011 698.685 670.962 698.685 672.135C698.685 673.307 697.733 674.257 696.558 674.258C695.383 674.258 694.431 673.307 694.431 672.135C694.431 670.962 695.383 670.01 696.558 670.01Z" fill="#17BAFF" stroke="url(#paint51_linear_135_8150)"/>
<path d="M658.2 620.482C659.375 620.482 660.327 621.434 660.327 622.606C660.327 623.778 659.375 624.729 658.2 624.729C657.025 624.729 656.073 623.778 656.073 622.606C656.073 621.434 657.025 620.482 658.2 620.482Z" fill="#17BAFF" stroke="url(#paint52_linear_135_8150)"/>
<path d="M419.279 696.462L-190.947 1048" stroke="url(#paint53_linear_135_8150)" stroke-miterlimit="10"/>
<path d="M395.585 682.767L-214.647 1034.3" stroke="url(#paint54_linear_135_8150)" stroke-miterlimit="10"/>
<path d="M371.885 669.071L-238.347 1020.6" stroke="url(#paint55_linear_135_8150)" stroke-miterlimit="10"/>
<path d="M348.191 655.382L-262.041 1006.91" stroke="url(#paint56_linear_135_8150)" stroke-miterlimit="10"/>
<path d="M324.491 641.687L-285.741 993.219" stroke="url(#paint57_linear_135_8150)" stroke-miterlimit="10"/>
<path d="M300.797 627.991L-309.435 979.524" stroke="url(#paint58_linear_135_8150)" stroke-miterlimit="10"/>
<path d="M277.097 614.295L-333.135 965.828" stroke="url(#paint59_linear_135_8150)" stroke-miterlimit="10"/>
<path d="M253.403 600.606L-356.829 952.132" stroke="url(#paint60_linear_135_8150)" stroke-miterlimit="10"/>
<path d="M194.201 632.584C195.376 632.584 196.328 633.536 196.328 634.708C196.328 635.88 195.376 636.831 194.201 636.831C193.026 636.831 192.074 635.88 192.074 634.708C192.074 633.536 193.026 632.584 194.201 632.584Z" fill="#00C7E3" stroke="url(#paint61_linear_135_8150)"/>
<path d="M184.916 692.607C186.091 692.607 187.043 693.559 187.043 694.731C187.043 695.903 186.091 696.854 184.916 696.854C183.741 696.854 182.789 695.903 182.789 694.731C182.789 693.559 183.741 692.607 184.916 692.607Z" fill="#00C7E3" stroke="url(#paint62_linear_135_8150)"/>
<path d="M270.156 670.863C271.331 670.863 272.283 671.815 272.283 672.987C272.283 674.159 271.331 675.11 270.156 675.11C268.981 675.11 268.029 674.159 268.029 672.987C268.029 671.815 268.981 670.863 270.156 670.863Z" fill="#00C7E3" stroke="url(#paint63_linear_135_8150)"/>
<path d="M343.873 682.427C345.048 682.427 346 683.379 346 684.551C346 685.723 345.048 686.674 343.873 686.674C342.698 686.674 341.746 685.723 341.746 684.551C341.746 683.378 342.698 682.427 343.873 682.427Z" fill="#00C7E3" stroke="url(#paint64_linear_135_8150)"/>
<path d="M294.04 711.806C295.215 711.806 296.167 712.757 296.167 713.93C296.166 715.102 295.215 716.053 294.04 716.053C292.865 716.053 291.913 715.102 291.913 713.93C291.913 712.757 292.864 711.806 294.04 711.806Z" fill="#00C7E3" stroke="url(#paint65_linear_135_8150)"/>
<path d="M273.761 750.82C274.936 750.82 275.888 751.772 275.888 752.944C275.888 754.116 274.936 755.067 273.761 755.067C272.586 755.067 271.634 754.116 271.634 752.944C271.634 751.772 272.586 750.82 273.761 750.82Z" fill="#00C7E3" stroke="url(#paint66_linear_135_8150)"/>
<path d="M373.35 720.825C374.525 720.825 375.477 721.776 375.477 722.949C375.476 724.121 374.525 725.072 373.35 725.072C372.175 725.072 371.223 724.121 371.223 722.949C371.223 721.776 372.174 720.825 373.35 720.825Z" fill="#00C7E3" stroke="url(#paint67_linear_135_8150)"/>
<path d="M379.535 689.918C380.71 689.918 381.662 690.869 381.662 692.042C381.662 693.214 380.71 694.165 379.535 694.165C378.36 694.165 377.408 693.214 377.408 692.042C377.408 690.869 378.36 689.918 379.535 689.918Z" fill="#00C7E3" stroke="url(#paint68_linear_135_8150)"/>
<defs>
<linearGradient id="paint0_linear_135_8150" x1="-117.698" y1="156.183" x2="-117.698" y2="582.149" gradientUnits="userSpaceOnUse">
<stop offset="0.403846" stop-color="white"/>
<stop offset="1" stop-color="#47FFF9"/>
</linearGradient>
<linearGradient id="paint1_linear_135_8150" x1="-97.4128" y1="134.065" x2="-97.4128" y2="567.896" gradientUnits="userSpaceOnUse">
<stop offset="0.403846" stop-color="white"/>
<stop offset="1" stop-color="#47FFF9"/>
</linearGradient>
<linearGradient id="paint2_linear_135_8150" x1="-77.1241" y1="111.948" x2="-77.1241" y2="553.649" gradientUnits="userSpaceOnUse">
<stop offset="0.403846" stop-color="white"/>
<stop offset="1" stop-color="#47FFF9"/>
</linearGradient>
<linearGradient id="paint3_linear_135_8150" x1="-56.8354" y1="89.8301" x2="-56.8354" y2="539.397" gradientUnits="userSpaceOnUse">
<stop offset="0.403846" stop-color="white"/>
<stop offset="1" stop-color="#47FFF9"/>
</linearGradient>
<linearGradient id="paint4_linear_135_8150" x1="-36.55" y1="67.7124" x2="-36.55" y2="525.143" gradientUnits="userSpaceOnUse">
<stop offset="0.403846" stop-color="white"/>
<stop offset="1" stop-color="#47FFF9"/>
</linearGradient>
<linearGradient id="paint5_linear_135_8150" x1="-16.2579" y1="45.5884" x2="-16.2579" y2="510.897" gradientUnits="userSpaceOnUse">
<stop offset="0.403846" stop-color="white"/>
<stop offset="1" stop-color="#47FFF9"/>
</linearGradient>
<linearGradient id="paint6_linear_135_8150" x1="4.02768" y1="23.4707" x2="4.02768" y2="496.644" gradientUnits="userSpaceOnUse">
<stop offset="0.403846" stop-color="white"/>
<stop offset="1" stop-color="#47FFF9"/>
</linearGradient>
<linearGradient id="paint7_linear_135_8150" x1="24.3164" y1="1.35327" x2="24.3164" y2="482.391" gradientUnits="userSpaceOnUse">
<stop offset="0.403846" stop-color="white"/>
<stop offset="1" stop-color="#47FFF9"/>
</linearGradient>
<linearGradient id="paint8_linear_135_8150" x1="303.207" y1="429.677" x2="303.207" y2="434.924" gradientUnits="userSpaceOnUse">
<stop offset="0.461538" stop-color="white"/>
<stop offset="1" stop-color="#47FFF9"/>
</linearGradient>
<linearGradient id="paint9_linear_135_8150" x1="3.10825" y1="227.048" x2="3.10825" y2="232.295" gradientUnits="userSpaceOnUse">
<stop offset="0.461538" stop-color="white"/>
<stop offset="1" stop-color="#47FFF9"/>
</linearGradient>
<linearGradient id="paint10_linear_135_8150" x1="357.639" y1="431.324" x2="357.639" y2="436.572" gradientUnits="userSpaceOnUse">
<stop offset="0.461538" stop-color="white"/>
<stop offset="1" stop-color="#47FFF9"/>
</linearGradient>
<linearGradient id="paint11_linear_135_8150" x1="174.548" y1="535.11" x2="174.548" y2="540.358" gradientUnits="userSpaceOnUse">
<stop offset="0.461538" stop-color="white"/>
<stop offset="1" stop-color="#47FFF9"/>
</linearGradient>
<linearGradient id="paint12_linear_135_8150" x1="211.066" y1="495.988" x2="211.066" y2="501.235" gradientUnits="userSpaceOnUse">
<stop offset="0.461538" stop-color="white"/>
<stop offset="1" stop-color="#47FFF9"/>
</linearGradient>
<linearGradient id="paint13_linear_135_8150" x1="293.31" y1="484.041" x2="293.31" y2="489.288" gradientUnits="userSpaceOnUse">
<stop offset="0.461538" stop-color="white"/>
<stop offset="1" stop-color="#47FFF9"/>
</linearGradient>
<linearGradient id="paint14_linear_135_8150" x1="204.239" y1="462.625" x2="204.239" y2="467.872" gradientUnits="userSpaceOnUse">
<stop offset="0.461538" stop-color="white"/>
<stop offset="1" stop-color="#47FFF9"/>
</linearGradient>
<linearGradient id="paint15_linear_135_8150" x1="227.358" y1="535.139" x2="227.358" y2="540.387" gradientUnits="userSpaceOnUse">
<stop offset="0.461538" stop-color="white"/>
<stop offset="1" stop-color="#47FFF9"/>
</linearGradient>
<linearGradient id="paint16_linear_135_8150" x1="342.794" y1="482.394" x2="342.794" y2="487.641" gradientUnits="userSpaceOnUse">
<stop offset="0.461538" stop-color="white"/>
<stop offset="1" stop-color="#47FFF9"/>
</linearGradient>
<linearGradient id="paint17_linear_135_8150" x1="991.022" y1="156.209" x2="991.022" y2="582.182" gradientUnits="userSpaceOnUse">
<stop offset="0.403846" stop-color="white"/>
<stop offset="1" stop-color="#47FFF9"/>
</linearGradient>
<linearGradient id="paint18_linear_135_8150" x1="970.733" y1="134.092" x2="970.733" y2="567.929" gradientUnits="userSpaceOnUse">
<stop offset="0.403846" stop-color="white"/>
<stop offset="1" stop-color="#47FFF9"/>
</linearGradient>
<linearGradient id="paint19_linear_135_8150" x1="950.444" y1="111.974" x2="950.444" y2="553.676" gradientUnits="userSpaceOnUse">
<stop offset="0.403846" stop-color="white"/>
<stop offset="1" stop-color="#47FFF9"/>
</linearGradient>
<linearGradient id="paint20_linear_135_8150" x1="930.159" y1="89.8562" x2="930.159" y2="539.423" gradientUnits="userSpaceOnUse">
<stop offset="0.403846" stop-color="white"/>
<stop offset="1" stop-color="#47FFF9"/>
</linearGradient>
<linearGradient id="paint21_linear_135_8150" x1="909.87" y1="67.7388" x2="909.87" y2="525.176" gradientUnits="userSpaceOnUse">
<stop offset="0.403846" stop-color="white"/>
<stop offset="1" stop-color="#47FFF9"/>
</linearGradient>
<linearGradient id="paint22_linear_135_8150" x1="889.581" y1="45.6211" x2="889.581" y2="510.923" gradientUnits="userSpaceOnUse">
<stop offset="0.403846" stop-color="white"/>
<stop offset="1" stop-color="#47FFF9"/>
</linearGradient>
<linearGradient id="paint23_linear_135_8150" x1="869.296" y1="23.5037" x2="869.296" y2="496.67" gradientUnits="userSpaceOnUse">
<stop offset="0.403846" stop-color="white"/>
<stop offset="1" stop-color="#47FFF9"/>
</linearGradient>
<linearGradient id="paint24_linear_135_8150" x1="849.004" y1="1.38599" x2="849.004" y2="482.417" gradientUnits="userSpaceOnUse">
<stop offset="0.403846" stop-color="white"/>
<stop offset="1" stop-color="#47FFF9"/>
</linearGradient>
<linearGradient id="paint25_linear_135_8150" x1="645.028" y1="535.697" x2="645.028" y2="540.944" gradientUnits="userSpaceOnUse">
<stop offset="0.403846" stop-color="white"/>
<stop offset="1" stop-color="#47FFF9"/>
</linearGradient>
<linearGradient id="paint26_linear_135_8150" x1="692.558" y1="538.222" x2="692.558" y2="543.47" gradientUnits="userSpaceOnUse">
<stop offset="0.403846" stop-color="white"/>
<stop offset="1" stop-color="#47FFF9"/>
</linearGradient>
<linearGradient id="paint27_linear_135_8150" x1="763.535" y1="497.464" x2="763.535" y2="502.711" gradientUnits="userSpaceOnUse">
<stop offset="0.403846" stop-color="white"/>
<stop offset="1" stop-color="#47FFF9"/>
</linearGradient>
<linearGradient id="paint28_linear_135_8150" x1="722.554" y1="461.09" x2="722.554" y2="466.337" gradientUnits="userSpaceOnUse">
<stop offset="0.403846" stop-color="white"/>
<stop offset="1" stop-color="#47FFF9"/>
</linearGradient>
<linearGradient id="paint29_linear_135_8150" x1="639.065" y1="478.995" x2="639.065" y2="484.243" gradientUnits="userSpaceOnUse">
<stop offset="0.403846" stop-color="white"/>
<stop offset="1" stop-color="#47FFF9"/>
</linearGradient>
<linearGradient id="paint30_linear_135_8150" x1="555.576" y1="496.901" x2="555.576" y2="502.148" gradientUnits="userSpaceOnUse">
<stop offset="0.403846" stop-color="white"/>
<stop offset="1" stop-color="#47FFF9"/>
</linearGradient>
<linearGradient id="paint31_linear_135_8150" x1="588.375" y1="419.31" x2="588.375" y2="424.557" gradientUnits="userSpaceOnUse">
<stop offset="0.403846" stop-color="white"/>
<stop offset="1" stop-color="#47FFF9"/>
</linearGradient>
<linearGradient id="paint32_linear_135_8150" x1="498.923" y1="440.199" x2="498.923" y2="445.447" gradientUnits="userSpaceOnUse">
<stop offset="0.403846" stop-color="white"/>
<stop offset="1" stop-color="#47FFF9"/>
</linearGradient>
<linearGradient id="paint33_linear_135_8150" x1="772.767" y1="283.142" x2="772.767" y2="288.39" gradientUnits="userSpaceOnUse">
<stop offset="0.403846" stop-color="white"/>
<stop offset="1" stop-color="#47FFF9"/>
</linearGradient>
<linearGradient id="paint34_linear_135_8150" x1="320.13" y1="701.454" x2="354.506" y2="641.841" gradientUnits="userSpaceOnUse">
<stop stop-color="white" stop-opacity="0"/>
<stop offset="1" stop-color="#00CCE7"/>
</linearGradient>
<linearGradient id="paint35_linear_135_8150" x1="553.298" y1="701.67" x2="518.811" y2="641.867" gradientUnits="userSpaceOnUse">
<stop stop-color="white" stop-opacity="0"/>
<stop offset="1" stop-color="#17BAFF"/>
</linearGradient>
<linearGradient id="paint36_linear_135_8150" x1="436.688" y1="689.228" x2="436.688" y2="460.909" gradientUnits="userSpaceOnUse">
<stop stop-color="#47FFF9"/>
<stop offset="0.6" stop-color="#D9FFCF"/>
</linearGradient>
<linearGradient id="paint37_linear_135_8150" x1="786.838" y1="696.462" x2="786.838" y2="1078.1" gradientUnits="userSpaceOnUse">
<stop stop-color="#17BAFF"/>
<stop offset="0.336538" stop-color="white"/>
</linearGradient>
<linearGradient id="paint38_linear_135_8150" x1="810.378" y1="682.767" x2="810.378" y2="1064.4" gradientUnits="userSpaceOnUse">
<stop stop-color="#17BAFF"/>
<stop offset="0.336538" stop-color="white"/>
</linearGradient>
<linearGradient id="paint39_linear_135_8150" x1="833.916" y1="669.071" x2="833.916" y2="1050.71" gradientUnits="userSpaceOnUse">
<stop stop-color="#17BAFF"/>
<stop offset="0.336538" stop-color="white"/>
</linearGradient>
<linearGradient id="paint40_linear_135_8150" x1="857.453" y1="655.382" x2="857.453" y2="1037.01" gradientUnits="userSpaceOnUse">
<stop stop-color="#17BAFF"/>
<stop offset="0.336538" stop-color="white"/>
</linearGradient>
<linearGradient id="paint41_linear_135_8150" x1="880.992" y1="641.686" x2="880.992" y2="1023.32" gradientUnits="userSpaceOnUse">
<stop stop-color="#17BAFF"/>
<stop offset="0.336538" stop-color="white"/>
</linearGradient>
<linearGradient id="paint42_linear_135_8150" x1="904.532" y1="627.991" x2="904.532" y2="1009.62" gradientUnits="userSpaceOnUse">
<stop stop-color="#17BAFF"/>
<stop offset="0.336538" stop-color="white"/>
</linearGradient>
<linearGradient id="paint43_linear_135_8150" x1="928.071" y1="614.295" x2="928.071" y2="995.935" gradientUnits="userSpaceOnUse">
<stop stop-color="#17BAFF"/>
<stop offset="0.336538" stop-color="white"/>
</linearGradient>
<linearGradient id="paint44_linear_135_8150" x1="951.61" y1="600.606" x2="951.61" y2="982.239" gradientUnits="userSpaceOnUse">
<stop stop-color="#17BAFF"/>
<stop offset="0.336538" stop-color="white"/>
</linearGradient>
<linearGradient id="paint45_linear_135_8150" x1="557.338" y1="752.609" x2="557.338" y2="757.856" gradientUnits="userSpaceOnUse">
<stop stop-color="#17BAFF"/>
<stop offset="0.336538" stop-color="white"/>
</linearGradient>
<linearGradient id="paint46_linear_135_8150" x1="530.236" y1="709.876" x2="530.236" y2="715.123" gradientUnits="userSpaceOnUse">
<stop stop-color="#17BAFF"/>
<stop offset="0.336538" stop-color="white"/>
</linearGradient>
<linearGradient id="paint47_linear_135_8150" x1="629.259" y1="739.51" x2="629.259" y2="744.757" gradientUnits="userSpaceOnUse">
<stop stop-color="#17BAFF"/>
<stop offset="0.336538" stop-color="white"/>
</linearGradient>
<linearGradient id="paint48_linear_135_8150" x1="577.025" y1="654.982" x2="577.025" y2="660.229" gradientUnits="userSpaceOnUse">
<stop stop-color="#17BAFF"/>
<stop offset="0.336538" stop-color="white"/>
</linearGradient>
<linearGradient id="paint49_linear_135_8150" x1="646.537" y1="667.746" x2="646.537" y2="672.993" gradientUnits="userSpaceOnUse">
<stop stop-color="#17BAFF"/>
<stop offset="0.336538" stop-color="white"/>
</linearGradient>
<linearGradient id="paint50_linear_135_8150" x1="591.357" y1="690.88" x2="591.357" y2="696.127" gradientUnits="userSpaceOnUse">
<stop stop-color="#17BAFF"/>
<stop offset="0.336538" stop-color="white"/>
</linearGradient>
<linearGradient id="paint51_linear_135_8150" x1="696.558" y1="669.51" x2="696.558" y2="674.758" gradientUnits="userSpaceOnUse">
<stop stop-color="#17BAFF"/>
<stop offset="0.336538" stop-color="white"/>
</linearGradient>
<linearGradient id="paint52_linear_135_8150" x1="658.2" y1="619.982" x2="658.2" y2="625.229" gradientUnits="userSpaceOnUse">
<stop stop-color="#17BAFF"/>
<stop offset="0.336538" stop-color="white"/>
</linearGradient>
<linearGradient id="paint53_linear_135_8150" x1="114.166" y1="696.462" x2="114.166" y2="1047.99" gradientUnits="userSpaceOnUse">
<stop stop-color="#00C7E3"/>
<stop offset="0.591346" stop-color="white"/>
</linearGradient>
<linearGradient id="paint54_linear_135_8150" x1="90.4689" y1="682.767" x2="90.4689" y2="1034.3" gradientUnits="userSpaceOnUse">
<stop stop-color="#00C7E3"/>
<stop offset="0.591346" stop-color="white"/>
</linearGradient>
<linearGradient id="paint55_linear_135_8150" x1="66.7687" y1="669.071" x2="66.7687" y2="1020.6" gradientUnits="userSpaceOnUse">
<stop stop-color="#00C7E3"/>
<stop offset="0.591346" stop-color="white"/>
</linearGradient>
<linearGradient id="paint56_linear_135_8150" x1="43.0749" y1="655.382" x2="43.0749" y2="1006.91" gradientUnits="userSpaceOnUse">
<stop stop-color="#00C7E3"/>
<stop offset="0.591346" stop-color="white"/>
</linearGradient>
<linearGradient id="paint57_linear_135_8150" x1="19.3747" y1="641.687" x2="19.3747" y2="993.219" gradientUnits="userSpaceOnUse">
<stop stop-color="#00C7E3"/>
<stop offset="0.591346" stop-color="white"/>
</linearGradient>
<linearGradient id="paint58_linear_135_8150" x1="-4.31915" y1="627.991" x2="-4.31915" y2="979.524" gradientUnits="userSpaceOnUse">
<stop stop-color="#00C7E3"/>
<stop offset="0.591346" stop-color="white"/>
</linearGradient>
<linearGradient id="paint59_linear_135_8150" x1="-28.0193" y1="614.295" x2="-28.0193" y2="965.828" gradientUnits="userSpaceOnUse">
<stop stop-color="#00C7E3"/>
<stop offset="0.591346" stop-color="white"/>
</linearGradient>
<linearGradient id="paint60_linear_135_8150" x1="-51.7132" y1="600.606" x2="-51.7132" y2="952.132" gradientUnits="userSpaceOnUse">
<stop stop-color="#00C7E3"/>
<stop offset="0.591346" stop-color="white"/>
</linearGradient>
<linearGradient id="paint61_linear_135_8150" x1="194.201" y1="632.084" x2="194.201" y2="637.331" gradientUnits="userSpaceOnUse">
<stop stop-color="#00C7E3"/>
<stop offset="0.591346" stop-color="white"/>
</linearGradient>
<linearGradient id="paint62_linear_135_8150" x1="184.916" y1="692.107" x2="184.916" y2="697.354" gradientUnits="userSpaceOnUse">
<stop stop-color="#00C7E3"/>
<stop offset="0.591346" stop-color="white"/>
</linearGradient>
<linearGradient id="paint63_linear_135_8150" x1="270.156" y1="670.363" x2="270.156" y2="675.611" gradientUnits="userSpaceOnUse">
<stop stop-color="#00C7E3"/>
<stop offset="0.591346" stop-color="white"/>
</linearGradient>
<linearGradient id="paint64_linear_135_8150" x1="343.873" y1="681.927" x2="343.873" y2="687.174" gradientUnits="userSpaceOnUse">
<stop stop-color="#00C7E3"/>
<stop offset="0.591346" stop-color="white"/>
</linearGradient>
<linearGradient id="paint65_linear_135_8150" x1="294.039" y1="711.306" x2="294.039" y2="716.553" gradientUnits="userSpaceOnUse">
<stop stop-color="#00C7E3"/>
<stop offset="0.591346" stop-color="white"/>
</linearGradient>
<linearGradient id="paint66_linear_135_8150" x1="273.761" y1="750.32" x2="273.761" y2="755.567" gradientUnits="userSpaceOnUse">
<stop stop-color="#00C7E3"/>
<stop offset="0.591346" stop-color="white"/>
</linearGradient>
<linearGradient id="paint67_linear_135_8150" x1="373.349" y1="720.325" x2="373.349" y2="725.572" gradientUnits="userSpaceOnUse">
<stop stop-color="#00C7E3"/>
<stop offset="0.591346" stop-color="white"/>
</linearGradient>
<linearGradient id="paint68_linear_135_8150" x1="379.535" y1="689.418" x2="379.535" y2="694.665" gradientUnits="userSpaceOnUse">
<stop stop-color="#00C7E3"/>
<stop offset="0.591346" stop-color="white"/>
</linearGradient>
</defs>
</svg>
